name C:\Users\u0101727\Documents\MyRepositories\upper-imu-dc\Results\main_tracking\Case_61\kinematics.mot
datacolumns 10
datarows 47
range 0.70000000 1.16000000
endheader 
time	clav_prot	clav_elev	scapula_abduction	scapula_elevation	scapula_upward_rot	scapula_winging	plane_elv	shoulder_elv	axial_rot	
          0.70000000	        -23.02429731	         -1.76567510	        -11.47780156	         -3.18635333	         17.12645693	          3.59322685	        -22.99828779	          7.69990713	         42.48690527	
          0.71000000	        -23.24403909	         -2.09358186	        -11.77264541	         -3.44562799	         17.12025864	          3.68919604	        -21.32829817	          7.99980683	         40.87951169	
          0.72000000	        -23.29825076	         -2.42599062	        -11.76510440	         -3.70337229	         17.13189935	          3.78195893	        -19.65791636	          8.30650382	         39.27094514	
          0.73000000	        -23.35497686	         -2.74946490	        -11.75337840	         -3.95965638	         17.16391151	          3.87055852	        -17.98898537	          8.61814228	         37.65764859	
          0.74000000	        -23.41245097	         -3.06358001	        -11.73391219	         -4.21418566	         17.21703021	          3.95450370	        -16.32187910	          8.93376503	         36.03914403	
          0.75000000	        -23.46942767	         -3.36786469	        -11.70446578	         -4.46649340	         17.29133659	          4.03345007	        -14.65608241	          9.25274514	         34.41617484	
          0.76000000	        -23.52490298	         -3.66187849	        -11.66349048	         -4.71603075	         17.38644326	          4.10716718	        -12.99058813	          9.57466498	         32.79017711	
          0.77000000	        -23.57809256	         -3.94524685	        -11.60999453	         -4.96222913	         17.50163563	          4.17551245	        -11.32418026	          9.89925881	         31.16304406	
          0.78000000	        -23.62839196	         -4.21768051	        -11.54341139	         -5.20453868	         17.63596938	          4.23841444	         -9.65559550	         10.22639886	         29.53691553	
          0.79000000	        -23.67535870	         -4.47897821	        -11.46352197	         -5.44245050	         17.78835012	          4.29585692	         -7.98366667	         10.55609918	         27.91400637	
          0.80000000	        -23.71872833	         -4.72901534	        -11.37044716	         -5.67550694	         17.95760018	          4.34786242	         -6.30745219	         10.88852493	         26.29644501	
          0.81000000	        -23.75839305	         -4.96773558	        -11.26457336	         -5.90331151	         18.14252687	          4.39447619	         -4.62635111	         11.22399843	         24.68613765	
          0.82000000	        -23.79440579	         -5.19513730	        -11.14653145	         -6.12553262	         18.34197671	          4.43575210	         -2.94019463	         11.56299064	         23.08464024	
          0.83000000	        -23.82694317	         -5.41126087	        -11.01710257	         -6.34190519	         18.55489129	          4.47173778	         -1.24932041	         11.90610647	         21.49305386	
          0.84000000	        -23.85626977	         -5.61617763	        -10.87713605	         -6.55222903	         18.78034568	          4.50246446	          0.44538913	         12.25405402	         19.91194691	
          0.85000000	        -23.88269898	         -5.80997614	        -10.72746841	         -6.75636166	         19.01757531	          4.52793787	          2.14248449	         12.60760055	         18.34129802	
          0.86000000	        -23.90656748	         -5.99274959	        -10.56887421	         -6.95420933	         19.26598848	          4.54813247	          3.83995628	         12.96751758	         16.78046711	
          0.87000000	        -23.92821792	         -6.16458560	        -10.40203451	         -7.14571810	         19.52517084	          4.56298788	          5.53526658	         13.33452283	         15.22819739	
          0.88000000	        -23.94798760	         -6.32555825	        -10.22751851	         -7.33086582	         19.79488452	          4.57240709	          7.22540054	         13.70922643	         13.68264621	
          0.89000000	        -23.96619916	         -6.47572669	        -10.04576836	         -7.50965832	         20.07506438	          4.57625763	          8.90693911	         14.09208798	         12.14144786	
          0.90000000	        -23.98314676	         -6.61513829	         -9.85707646	         -7.68212843	         20.36581255	          4.57437502	         10.57614558	         14.48339011	         10.60180615	
          0.91000000	        -23.99908097	         -6.74383672	         -9.66156138	         -7.84833786	         20.66738955	          4.56656917	         12.22906532	         14.88323236	          9.06062192	
          0.92000000	        -24.01419047	         -6.86187370	         -9.45913950	         -8.00838104	         20.98020282	          4.55263312	         13.86163437	         15.29154430	          7.51465330	
          0.93000000	        -24.02857901	         -6.96932180	         -9.24949019	         -8.16238881	         21.30479228	          4.53235313	         15.46979466	         15.70811748	          5.96070533	
          0.94000000	        -24.04223038	         -7.06628797	         -9.03200292	         -8.31053119	         21.64181206	          4.50551991	         17.04961438	         16.13265500	          4.39585225	
          0.95000000	        -24.05495785	         -7.15292472	         -8.80570324	         -8.45301579	         21.99200514	          4.47194026	         18.59740913	         16.56483280	          2.81768323	
          0.96000000	        -24.06634835	         -7.22943545	         -8.56918054	         -8.59007874	         22.35616394	          4.43144870	         20.10985720	         17.00436072	          1.22455701	
          0.97000000	        -24.07572523	         -7.29607069	         -8.32056266	         -8.72196594	         22.73507154	          4.38391855	         21.58410297	         17.45102824	         -0.38415151	
          0.98000000	        -24.08215759	         -7.35311332	         -8.05758656	         -8.84890558	         23.12942370	          4.32927146	         23.01784432	         17.90472207	         -2.00783816	
          0.99000000	        -24.08452815	         -7.40085500	         -7.77777846	         -8.97107638	         23.53974113	          4.26748382	         24.40939909	         18.36540977	         -3.64451942	
          1.00000000	        -24.08165256	         -7.43956845	         -7.47872126	         -9.08857824	         23.96628663	          4.19858919	         25.75774861	         18.83309797	         -5.29077028	
          1.01000000	        -24.07242003	         -7.46948305	         -7.15834594	         -9.20141210	         24.40900235	          4.12267699	         27.06255419	         19.30778316	         -6.94176459	
          1.02000000	        -24.05591863	         -7.49077200	         -6.81517604	         -9.30947468	         24.86747614	          4.03988990	         28.32414377	         19.78941378	         -8.59141800	
          1.03000000	        -24.03152104	         -7.50355475	         -6.44848353	         -9.41256865	         25.34093565	          3.95042288	         29.54346768	         20.27787735	        -10.23261670	
          1.04000000	        -23.99892583	         -7.50791148	         -6.05835336	         -9.51042350	         25.82826227	          3.85452463	         30.72202617	         20.77301891	        -11.85750358	
          1.05000000	        -23.95816092	         -7.50390290	         -5.64567544	         -9.60272006	         26.32801514	          3.75250051	         31.86177415	         21.27468686	        -13.45779295	
          1.06000000	        -23.90956343	         -7.49158722	         -5.21209651	         -9.68911137	         26.83845548	          3.64471488	         32.96501103	         21.78279481	        -15.02508856	
          1.07000000	        -23.85375333	         -7.47102961	         -4.75996783	         -9.76923569	         27.35756336	          3.53159202	         34.03426779	         22.29738856	        -16.55117928	
          1.08000000	        -23.79160818	         -7.44230191	         -4.29230138	         -9.84272077	         27.88304715	          3.41361399	         35.07219795	         22.81870640	        -18.02830185	
          1.09000000	        -23.72422781	         -7.40547201	         -3.81271692	         -9.90917789	         28.41234365	          3.29131479	         36.08148446	         23.34723005	        -19.44935928	
          1.10000000	        -23.65295964	         -7.36057927	         -3.32548969	         -9.96819040	         28.94262634	          3.16526712	         37.06476111	         23.88370892	        -20.80805400	
          1.11000000	        -23.57929474	         -7.30760911	         -2.83543244	        -10.01927940	         29.47073329	          3.03607992	         38.02457812	         24.42925964	        -22.09906672	
          1.12000000	        -23.57387937	         -7.24091809	         -2.46738256	        -10.06192043	         29.99344684	          2.90366957	         38.96354067	         24.98493510	        -23.31764159	
          1.13000000	        -23.03705989	         -7.20850355	         -1.18396140	        -10.09560686	         30.50661726	          2.77085568	         39.88355989	         25.55340440	        -24.46072724	
          1.14000000	        -23.38932815	         -7.09919363	         -1.45147495	        -10.12142417	         31.00790696	          2.63684518	         40.78715693	         26.13453245	        -25.52509587	
          1.15000000	        -23.25723013	         -7.02094902	         -0.88556767	        -10.13881349	         31.49911064	          2.50181165	         41.67409123	         26.72528542	        -26.51152911	
          1.16000000	        -23.24618190	         -6.92505250	         -0.53883545	        -10.14707109	         31.97793718	          2.36525373	         42.54487091	         27.32638251	        -27.41837034	
